<svg width="16" height="16" viewBox="0 0 16 16" fill="none" xmlns="http://www.w3.org/2000/svg">
<path opacity="0.5" d="M7.21526 0.0270382C6.14358 0.149809 5.4402 0.331407 4.72148 0.676699C2.87737 1.55911 1.66245 3.28813 1.21996 5.6617C1.05371 6.53899 1 7.12215 1 7.99178C1 8.85373 1.05371 9.44968 1.20718 10.2835C1.37854 11.1992 1.6292 11.9435 2.02309 12.6929C3.14848 14.8388 5.25349 16 8.00815 16C8.75245 16 9.42769 15.9207 10.0927 15.7545C11.768 15.3376 13.2438 14.1022 13.8091 12.6366C14.2464 11.5061 14.1723 10.1633 13.6172 9.1581C13.2182 8.43682 12.5967 7.86133 11.768 7.44698C11.635 7.38048 11.5173 7.31142 11.5071 7.29608C11.4969 7.27817 11.4867 7.21167 11.4867 7.14773C11.4867 6.96102 11.3869 6.4239 11.2923 6.08883C11.1311 5.52614 10.8012 4.95576 10.4354 4.60024C9.88296 4.07079 9.10541 3.76642 8.19998 3.73062C7.34826 3.69481 6.60652 3.89687 5.95942 4.33935C5.72922 4.49793 5.31487 4.90205 5.17676 5.10667L5.09491 5.22433L5.2407 5.32408C5.31999 5.38035 5.5732 5.55427 5.8034 5.71029C6.03359 5.86887 6.22286 5.99931 6.22798 5.99931C6.23054 5.99931 6.29192 5.92514 6.36354 5.83818C6.78812 5.30873 7.49661 5.06575 8.36623 5.15271C9.03891 5.21921 9.52744 5.52869 9.80367 6.06582C9.91365 6.27555 10.0211 6.58503 10.0646 6.81523L10.0799 6.90219L9.9469 6.88684C9.1668 6.79988 8.93916 6.78709 8.46854 6.79988C7.45569 6.82802 6.76254 7.00194 6.13846 7.3856C5.8699 7.55185 5.48368 7.92016 5.31999 8.17082C4.91587 8.78723 4.80845 9.58524 5.03352 10.3091C5.32766 11.2529 6.11288 11.8949 7.26641 12.1404C7.61171 12.212 8.27671 12.2197 8.64247 12.1532C10.1566 11.8846 11.0749 10.8692 11.3971 9.10694C11.4227 8.97906 11.4457 8.87163 11.4508 8.86652C11.456 8.8614 11.5532 8.92535 11.6683 9.00719C12.057 9.28598 12.3921 9.70545 12.5379 10.0917C12.9804 11.2605 12.6274 12.5062 11.5941 13.4244C10.6426 14.271 9.45582 14.6316 7.78052 14.5856C7.15899 14.5677 6.85718 14.5293 6.32006 14.3989C5.40695 14.1763 4.69335 13.7876 4.09228 13.1891C3.29939 12.3962 2.8211 11.4115 2.54998 10.0021C2.3428 8.93558 2.32746 7.30631 2.51161 6.20649C2.88504 3.96848 3.91069 2.50803 5.57576 1.83535C7.25107 1.15755 9.57348 1.28032 11.0493 2.12181C12.1517 2.75101 12.9139 3.74852 13.341 5.11434L13.4305 5.40337L13.694 5.32919C13.8372 5.29083 14.1313 5.21154 14.3462 5.15527C14.5636 5.10155 14.7477 5.0504 14.7554 5.04273C14.7733 5.02227 14.5252 4.28564 14.3973 3.97872C13.653 2.21645 12.3077 0.952933 10.5787 0.390234C10.0339 0.213752 9.73206 0.147251 8.99288 0.0500577C8.58108 -0.00621212 7.60915 -0.016443 7.21526 0.0270382ZM9.60673 8.26034C9.90342 8.30382 10.0773 8.34219 10.1004 8.36265C10.1259 8.38823 10.0569 8.87675 9.98783 9.14275C9.85994 9.65174 9.69625 9.97913 9.43536 10.2605C9.14378 10.5725 8.77547 10.7337 8.25114 10.7823C7.59892 10.8436 7.01064 10.6876 6.65512 10.3628C6.39679 10.1224 6.28425 9.84868 6.2996 9.50339C6.33285 8.81025 6.9467 8.34219 7.97746 8.22453C8.26648 8.19128 9.30492 8.2143 9.60673 8.26034Z" fill="#F2C029"/>
</svg>
